<svg width="68" height="68" fill="none" xmlns="http://www.w3.org/2000/svg"><g filter="url(#filter0_d)"><path fill-rule="evenodd" clip-rule="evenodd" d="M34 58c13.255 0 24-10.745 24-24S47.255 10 34 10 10 20.745 10 34s10.745 24 24 24z" fill="#C7A17A"/></g><path d="M38.161 25.256a.843.843 0 00-1.21 0 .864.864 0 000 1.206l6.134 6.178H22.847a.846.846 0 00-.847.854c0 .475.375.865.847.865h20.238l-6.133 6.167a.88.88 0 000 1.218.843.843 0 001.21 0l7.584-7.64a.843.843 0 000-1.207l-7.585-7.641z" fill="#F9FBFF"/><defs><filter id="filter0_d" x="0" y="0" width="68" height="68" filterUnits="userSpaceOnUse" color-interpolation-filters="sRGB"><feFlood flood-opacity="0" result="BackgroundImageFix"/><feColorMatrix in="SourceAlpha" values="0 0 0 0 0 0 0 0 0 0 0 0 0 0 0 0 0 0 127 0"/><feOffset/><feGaussianBlur stdDeviation="5"/><feColorMatrix values="0 0 0 0 0 0 0 0 0 0 0 0 0 0 0 0 0 0 0.1 0"/><feBlend in2="BackgroundImageFix" result="effect1_dropShadow"/><feBlend in="SourceGraphic" in2="effect1_dropShadow" result="shape"/></filter></defs></svg>